<svg version="1.2" xmlns="http://www.w3.org/2000/svg" viewBox="0 0 512 512" width="512" height="512">
	<title>New Project</title>
	<style>
		.s0 { fill: #5f5af6 } 
		.s1 { fill: #ffffff } 
	</style>
	<path id="Shape 1" class="s0" d="m256 512c-141.6 0-256-114.4-256-256 0-141.6 114.4-256 256-256 141.6 0 256 114.4 256 256 0 141.6-114.4 256-256 256z"/>
	<rect width="512" height="512" id="Color Fill 1" style="fill: #5f5af6"/>
	<path id="C" class="s1" aria-label="C"  d="m125.5 256.2c0 79.8 55.5 135.7 134.2 135.7 63.4 0 111.3-35.3 126.5-93.1h-71.4c-11 22.8-31.2 34.2-55.9 34.2-39.9 0-67.2-29.6-67.2-76.8 0-47.1 27.3-76.7 67.2-76.7 24.7 0 44.9 11.4 55.9 34.2h71.4c-15.2-57.8-63.1-93.5-126.5-93.5-78.7 0-134.2 56.2-134.2 136z"/>
</svg>